<?xml version="1.0" encoding="UTF-8"?>
<svg xmlns="http://www.w3.org/2000/svg" xmlns:xlink="http://www.w3.org/1999/xlink" width="200pt" height="59pt" viewBox="0 0 200 59" version="1.1">
<g id="surface1">
<path style=" stroke:none;fill-rule:nonzero;fill:rgb(51.372549%,46.27451%,46.27451%);fill-opacity:1;" d="M 100.066406 5.511719 C 97.230469 5.539062 94.394531 5.570312 91.554688 5.589844 C 91.035156 6.507812 89.3125 8.148438 90.675781 9.085938 C 91.316406 9.164062 91.558594 9.433594 91.496094 10.105469 C 91.949219 11.464844 93.890625 10.667969 94.984375 10.941406 C 99.109375 10.882812 103.320312 11.292969 107.398438 10.679688 C 108.183594 10.355469 108.261719 9.335938 108.167969 8.601562 C 109.582031 10.957031 109.824219 9.988281 109.617188 7.726562 C 109.753906 6.535156 109 5.355469 107.703125 5.582031 C 105.160156 5.453125 102.613281 5.5 100.066406 5.511719 Z M 74.429688 9.183594 C 73.269531 10.332031 71.9375 11.359375 70.203125 10.988281 C 67.90625 10.351562 67.707031 11.820312 67.980469 13.757812 C 67.964844 14.65625 67.707031 16.847656 69.261719 16.457031 C 75.480469 15.117188 81.695312 13.753906 87.910156 12.382812 C 87.484375 11.386719 87.976562 9.085938 86.332031 9.183594 C 82.386719 9.042969 78.304688 8.914062 74.429688 9.183594 Z M 74.429688 9.183594 "/>
<path style="fill-rule:nonzero;fill:rgb(61.568627%,39.215686%,9.411765%);fill-opacity:1;stroke-width:1;stroke-linecap:butt;stroke-linejoin:miter;stroke:rgb(22.745098%,20.784314%,16.862745%);stroke-opacity:1;stroke-miterlimit:4;" d="M 416.75576 69.152966 L 415.721626 26.461388 L 448.289745 17.008857 L 458.064431 8.346389 L 497.503162 8.840178 C 531.190412 9.517374 539.675972 9.968838 542.63671 11.224473 L 541.829236 61.28056 C 534.703632 62.395112 498.126475 64.116319 475.998854 64.356159 C 454.565377 64.596 453.701238 64.680649 442.55243 67.840898 C 429.193693 71.62191 423.952195 71.889967 416.75576 69.152966 Z M 202.350157 34.658284 L 257.244224 72.496622 C 257.456718 76.376392 258.0092 81.765745 256.677576 85.419783 L 251.846898 96.706387 C 246.421239 102.533096 230.583415 139.44029 230.399255 146.720149 C 230.215094 153.449787 229.209293 155.326184 224.520277 157.710479 C 213.796455 163.142157 197.420316 157.456531 194.89873 147.425562 C 193.765433 142.868596 196.556177 133.21855 205.438391 111.026265 L 209.617423 100.614373 L 207.931644 91.246492 C 207.01084 86.082871 206.486691 80.086863 206.784181 77.914192 C 207.265832 74.231938 207.138336 73.963881 204.815078 73.963881 C 203.044301 73.963881 26.20749 134.135586 12.466266 139.426182 C 11.148808 139.91997 10.652991 137.507459 9.165538 123.455637 C 8.18807 114.341705 5.850645 96.889794 3.952373 84.672046 C 2.054101 72.454297 0.495817 61.506292 0.495817 60.335307 C 0.495817 57.598305 6.856446 55.778341 25.994997 53.027231 C 40.756189 50.925101 109.235653 42.996262 113.499682 42.897504 C 114.873804 42.869288 119.817812 44.209572 124.506828 45.888454 C 136.87393 50.304338 146.535286 49.866982 179.995876 43.363077 C 197.250321 40.005312 198.440283 39.553848 202.350157 34.658284 Z M 487.105163 33.205133 C 488.776776 31.540359 488.252626 31.441602 476.041352 31.173545 C 468.986579 31.018354 462.994272 31.13122 462.725114 31.399277 C 462.44179 31.681442 462.781779 32.598479 463.475923 33.430866 C 465.445027 35.801052 484.696907 35.617645 487.105163 33.205133 Z M 528.003014 33.952871 C 528.343003 33.402649 531.062916 32.951185 534.066152 32.951185 C 537.055223 32.951185 539.505977 32.542046 539.505977 32.048257 C 539.505977 30.214184 505.280412 28.22492 502.064682 29.875585 C 500.917219 30.454024 497.517328 31.074787 494.499925 31.258194 C 489.895907 31.540359 490.235896 31.625009 496.624857 31.766092 C 502.008017 31.907174 504.6146 32.400963 505.507071 33.459082 C 506.456207 34.615959 509.105289 34.954557 517.066699 34.954557 C 522.860679 34.954557 527.648859 34.517201 528.003014 33.952871 Z M 528.003014 33.952871 " transform="matrix(0.275744,0,0,0.276877,0,0.0679838)"/>
<path style=" stroke:none;fill-rule:nonzero;fill:rgb(22.745098%,20.784314%,16.862745%);fill-opacity:1;" d="M 112.21875 58.277344 C 99.972656 48.984375 92.945312 38.910156 90.117188 26.589844 C 89.179688 22.5 89.160156 22.449219 88.71875 22.621094 C 88.492188 22.707031 88.058594 22.558594 87.761719 22.289062 C 87.230469 21.804688 87.21875 21.824219 87.21875 23.363281 C 87.21875 24.558594 87.089844 25.058594 86.667969 25.484375 C 86.363281 25.789062 85.964844 26.597656 85.785156 27.285156 C 85.375 28.8125 85.015625 28.890625 85.015625 27.449219 C 85.015625 26.351562 84.707031 26.035156 83.636719 26.035156 C 83.113281 26.035156 82.917969 24.980469 82.738281 21.191406 L 82.671875 19.804688 L 79.5 19.902344 C 76.074219 20.007812 75.683594 20.160156 75.082031 21.621094 C 74.640625 22.691406 75.09375 23.628906 75.960938 24.695312 C 76.308594 25.121094 76.617188 25.324219 77.570312 25.761719 C 78.328125 26.25 76.199219 26.070312 75.363281 25.578125 C 74.554688 25.097656 73.433594 23.375 73.433594 22.613281 C 73.433594 22.371094 73.0625 21.984375 72.613281 21.75 C 72.164062 21.515625 71.65625 21.066406 71.488281 20.75 C 70.96875 19.773438 70.925781 20.324219 71.324219 22.824219 L 70.882812 23.539062 C 70.691406 23.539062 67.746094 23.226562 64.332031 22.851562 L 57.066406 21.914062 L 57.179688 20.425781 L 55.933594 20.566406 C 55.253906 20.644531 54.910156 21.007812 54.992188 20.878906 C 55.070312 20.75 54.707031 18.300781 54.375 15.9375 L 53.371094 10.964844 C 54.207031 10.777344 54.84375 10.765625 55.535156 9.898438 C 56.046875 9.257812 57.429688 7.722656 58.609375 6.484375 L 60.75 4.242188 L 84.375 4.035156 C 107.78125 3.832031 108.007812 3.824219 108.78125 3.25 C 109.628906 2.617188 109.675781 2.175781 108.898438 2.0625 C 108.269531 1.96875 108.261719 1.960938 108.019531 1.003906 C 107.820312 0.207031 107.828125 0.203125 108.460938 0.648438 C 108.945312 0.988281 109.199219 1.023438 109.476562 0.792969 C 109.75 0.5625 110.03125 0.566406 110.546875 0.800781 C 111.011719 1.015625 113.125 1.105469 116.875 1.078125 C 123.101562 1.035156 123.34375 1.09375 123.34375 2.671875 C 123.34375 3.738281 123.550781 3.816406 124.480469 3.101562 C 126.035156 1.90625 126.101562 1.984375 126.101562 4.984375 C 126.101562 7.464844 126.160156 7.769531 126.683594 8.140625 C 127.003906 8.367188 127.472656 8.484375 127.71875 8.40625 C 128.089844 8.289062 128.101562 8.3125 127.773438 8.546875 C 127.445312 8.777344 127.4375 8.902344 127.738281 9.261719 C 128.25 9.882812 133.863281 9.902344 134.371094 9.285156 C 134.84375 8.714844 138.429688 8.722656 139.183594 9.292969 C 139.816406 9.773438 145.679688 9.890625 145.679688 9.421875 C 145.679688 9.269531 146.363281 9.148438 147.195312 9.148438 C 149.046875 9.148438 149.234375 8.613281 147.402344 8.542969 L 146.09375 8.496094 L 148.4375 8.285156 L 148.4375 3.089844 L 150.003906 3.449219 C 151.128906 4.09375 151.378906 4.117188 159.738281 4.3125 L 168.316406 4.515625 L 168.875 5.613281 C 169.785156 7.402344 171.460938 9.007812 173.320312 9.867188 C 175.363281 10.808594 178.027344 10.988281 185.277344 10.671875 L 189.71875 10.476562 L 190.46875 8.082031 C 190.878906 6.761719 191.519531 4.929688 191.894531 4.007812 C 192.269531 3.085938 192.644531 1.875 192.738281 1.320312 C 192.886719 0.371094 192.972656 0.296875 194.125 0.125 C 194.847656 0.015625 195.632812 0.0664062 196.023438 0.246094 C 196.6875 0.550781 196.691406 0.570312 196.691406 4.863281 L 196.691406 9.171875 L 197.449219 9.84375 C 197.914062 10.25 198.558594 10.515625 199.105469 10.523438 L 200 10.53125 L 200 13.527344 L 198.289062 13.898438 C 196.832031 14.214844 196.554688 14.371094 196.414062 14.960938 L 196.253906 15.652344 L 182.804688 15.703125 C 173.257812 15.742188 169.242188 15.847656 168.976562 16.070312 C 168.699219 16.304688 168.445312 16.300781 167.992188 16.054688 C 167.582031 15.835938 164.714844 15.679688 159.265625 15.578125 L 151.144531 15.429688 L 150.527344 16.203125 L 148.710938 16.871094 L 148.710938 9.421875 L 147.347656 9.421875 C 146.597656 9.421875 145.910156 9.546875 145.816406 9.699219 C 145.53125 10.160156 139.8125 10.050781 139.183594 9.570312 C 138.429688 9 134.84375 8.992188 134.371094 9.5625 C 133.835938 10.214844 128.234375 10.15625 127.558594 9.492188 C 127.117188 9.058594 126.496094 9.015625 121.480469 9.089844 L 115.898438 9.167969 L 115.898438 14.28125 C 115.898438 19.390625 115.898438 19.390625 116.519531 19.414062 C 116.859375 19.425781 116.988281 19.496094 116.800781 19.574219 C 116.613281 19.648438 115.761719 19.449219 114.910156 19.128906 C 113.316406 18.53125 111.265625 18.507812 104.660156 19.007812 C 102.71875 19.15625 102.664062 19.179688 102.664062 19.898438 C 102.671875 21.300781 103.984375 26.460938 104.953125 28.867188 C 107.394531 34.945312 112.402344 41.21875 118.929688 46.371094 C 120.070312 47.269531 121.050781 48.046875 121.113281 48.09375 C 118.160156 51.714844 116.640625 61.546875 112.21875 58.277344 Z M 78.246094 14.121094 C 83.089844 13.046875 87.105469 12.121094 87.164062 12.0625 C 87.226562 12 87.191406 11.445312 87.085938 10.824219 L 86.898438 9.699219 L 84.371094 9.699219 C 82.980469 9.695312 80.292969 9.617188 78.398438 9.519531 L 74.949219 9.347656 L 73.753906 10.351562 C 72.613281 11.3125 72.457031 11.359375 70.511719 11.359375 L 68.46875 11.359375 L 68.46875 13.714844 C 68.46875 15.769531 68.53125 16.066406 68.953125 16.066406 C 69.21875 16.066406 73.398438 15.191406 78.246094 14.121094 Z M 166.910156 14.582031 C 166.910156 14.277344 165.574219 14.179688 159.949219 14.066406 C 156.117188 13.992188 152.945312 14.035156 152.894531 14.167969 C 152.84375 14.296875 152.441406 14.40625 152 14.40625 C 151.554688 14.40625 151.191406 14.53125 151.191406 14.683594 C 151.191406 14.859375 153.996094 14.960938 159.050781 14.960938 C 165.5 14.960938 166.910156 14.890625 166.910156 14.582031 Z M 185.9375 14.695312 C 189.046875 14.59375 191.0625 14.484375 190.417969 14.457031 C 189.773438 14.429688 189.246094 14.28125 189.246094 14.128906 C 189.246094 13.953125 186.765625 13.851562 182.351562 13.851562 C 177.941406 13.851562 175.457031 13.953125 175.457031 14.128906 C 175.457031 14.285156 174.589844 14.417969 173.460938 14.433594 C 172.359375 14.449219 171.152344 14.5625 170.769531 14.683594 C 169.9375 14.949219 178.046875 14.957031 185.9375 14.695312 Z M 107.457031 10.089844 C 107.550781 9.851562 107.625 9.289062 107.625 8.847656 C 107.625 7.882812 107.988281 7.808594 108.574219 8.652344 C 108.992188 9.25 109.003906 9.226562 109.003906 8.015625 C 109.003906 7.328125 108.855469 6.613281 108.671875 6.433594 C 108.429688 6.1875 106.160156 6.101562 100.175781 6.101562 C 92.054688 6.101562 92.003906 6.101562 91.441406 6.722656 C 90.90625 7.3125 90.253906 8.394531 90.253906 8.691406 C 90.253906 8.769531 90.597656 8.871094 91.011719 8.917969 C 91.609375 8.988281 91.789062 9.171875 91.859375 9.769531 L 91.945312 10.53125 L 99.617188 10.53125 C 106.359375 10.53125 107.3125 10.476562 107.457031 10.089844 Z M 166.859375 9.492188 L 166.945312 8.589844 L 158.65625 8.589844 C 153.3125 8.589844 150.367188 8.691406 150.367188 8.867188 C 150.367188 9.019531 150.925781 9.144531 151.605469 9.144531 C 152.628906 9.144531 152.847656 9.234375 152.847656 9.652344 C 152.847656 9.933594 152.933594 10.246094 153.039062 10.351562 C 153.140625 10.453125 156.273438 10.503906 160 10.464844 L 166.773438 10.390625 Z M 195.417969 8.707031 C 195.691406 8 195.617188 7.066406 195.257812 6.707031 C 194.761719 6.210938 192.550781 6.292969 191.957031 6.835938 C 191.464844 7.28125 191.265625 8.589844 191.636719 8.960938 C 191.734375 9.0625 192.59375 9.144531 193.535156 9.144531 C 194.847656 9.144531 195.292969 9.042969 195.417969 8.707031 Z M 89.519531 8.332031 C 89.726562 8.125 85.066406 8.054688 73.832031 8.101562 L 57.855469 8.164062 L 71.824219 8.308594 C 79.511719 8.386719 85.898438 8.558594 86.027344 8.6875 C 86.328125 9 89.144531 8.710938 89.519531 8.332031 Z M 91.074219 5.9375 C 91.421875 5.601562 89.292969 5.546875 75.742188 5.546875 C 60.046875 5.546875 60.007812 5.546875 59.484375 6.132812 L 58.957031 6.722656 L 74.8125 6.523438 C 87.890625 6.363281 90.738281 6.257812 91.074219 5.9375 Z M 91.074219 5.9375 "/>
<path style="fill:none;stroke-width:1;stroke-linecap:round;stroke-linejoin:miter;stroke:rgb(22.745098%,20.784314%,16.862745%);stroke-opacity:1;stroke-miterlimit:4;" d="M 256.153426 84.15004 C 249.325312 106.356433 297.816253 107.033629 304.672699 91.175951 " transform="matrix(0.275744,0,0,0.276877,0,0.0679838)"/>
<path style=" stroke:none;fill-rule:evenodd;fill:rgb(16.470588%,12.54902%,5.098039%);fill-opacity:1;" d="M 113.917969 9.410156 L 115.78125 9.277344 L 115.914062 19.5625 L 113.519531 18.359375 Z M 123.230469 3.535156 L 124.691406 3.402344 L 126.023438 2.199219 L 126.289062 8.210938 L 127.21875 9.144531 L 123.363281 8.742188 Z M 123.230469 3.535156 "/>
</g>
</svg>
