<?xml version="1.0" standalone="no"?>
<!DOCTYPE svg PUBLIC "-//W3C//DTD SVG 20010904//EN"
 "http://www.w3.org/TR/2001/REC-SVG-20010904/DTD/svg10.dtd">
<svg version="1.0" xmlns="http://www.w3.org/2000/svg"
 width="512.000000pt" height="512.000000pt" viewBox="0 0 512.000000 512.000000"
 preserveAspectRatio="xMidYMid meet">
<metadata>
Created by potrace 1.14, written by Peter Selinger 2001-2017
</metadata>
<g transform="translate(0.000000,512.000000) scale(0.100000,-0.100000)"
fill="#000000" stroke="none">
<path d="M2470 5113 c-637 -19 -1257 -290 -1715 -748 -353 -352 -595 -799
-696 -1283 -68 -322 -68 -722 0 -1044 101 -484 343 -931 696 -1283 412 -412
964 -678 1525 -734 353 -35 605 -17 926 64 918 234 1654 999 1852 1925 42 196
53 307 53 530 0 224 -14 370 -50 542 -101 484 -343 931 -696 1283 -503 503
-1177 769 -1895 748z m392 -725 l3 -131 200 -73 c110 -40 259 -93 331 -119 72
-26 135 -50 141 -53 6 -5 -2 -95 -23 -258 l-32 -252 -116 -289 c-137 -341
-150 -390 -143 -563 6 -147 9 -160 128 -461 49 -124 89 -229 89 -232 0 -4
-155 -7 -345 -7 l-345 0 0 -505 0 -505 190 0 190 0 0 -170 0 -170 -570 0 -570
0 0 170 0 170 190 0 190 0 0 505 0 505 -345 0 c-190 0 -345 4 -345 9 0 4 42
116 94 247 103 260 126 348 126 478 0 142 -21 218 -146 527 l-116 288 -33 253
c-18 139 -29 255 -25 258 5 3 157 59 339 125 l331 120 0 133 0 132 305 0 304
0 3 -132z"/>
</g>
</svg>
