<?xml version="1.0" encoding="UTF-8"?>
<svg xmlns="http://www.w3.org/2000/svg" xmlns:xlink="http://www.w3.org/1999/xlink" width="50pt" height="69pt" viewBox="0 0 50 69" version="1.1">
<g id="surface1">
<path style="fill-rule:evenodd;fill:rgb(100%,100%,100%);fill-opacity:1;stroke-width:1;stroke-linecap:butt;stroke-linejoin:miter;stroke:rgb(0%,0%,0%);stroke-opacity:1;stroke-miterlimit:4;" d="M 90.328125 227.859375 L 103.796875 227.859375 L 103.796875 232.78125 L 90.328125 232.78125 Z M 90.328125 227.859375 " transform="matrix(0.25,0,0,0.25,0,-2.5)"/>
<path style="fill-rule:evenodd;fill:rgb(100%,100%,100%);fill-opacity:1;stroke-width:1;stroke-linecap:butt;stroke-linejoin:miter;stroke:rgb(0%,0%,0%);stroke-opacity:1;stroke-miterlimit:4;" d="M 90.328125 215.3125 L 103.796875 215.3125 L 103.796875 220.234375 L 90.328125 220.234375 Z M 90.328125 215.3125 " transform="matrix(0.25,0,0,0.25,0,-2.5)"/>
<path style="fill-rule:evenodd;fill:rgb(100%,100%,100%);fill-opacity:1;stroke-width:1;stroke-linecap:butt;stroke-linejoin:miter;stroke:rgb(0%,0%,0%);stroke-opacity:1;stroke-miterlimit:4;" d="M 90.328125 240.375 L 103.796875 240.375 L 103.796875 245.28125 L 90.328125 245.28125 Z M 90.328125 240.375 " transform="matrix(0.25,0,0,0.25,0,-2.5)"/>
<path style="fill-rule:evenodd;fill:rgb(100%,100%,100%);fill-opacity:1;stroke-width:1;stroke-linecap:butt;stroke-linejoin:miter;stroke:rgb(0%,0%,0%);stroke-opacity:1;stroke-miterlimit:4;" d="M 90.328125 252.859375 L 103.796875 252.859375 L 103.796875 257.78125 L 90.328125 257.78125 Z M 90.328125 252.859375 " transform="matrix(0.25,0,0,0.25,0,-2.5)"/>
<path style="fill-rule:evenodd;fill:rgb(100%,100%,100%);fill-opacity:1;stroke-width:1;stroke-linecap:butt;stroke-linejoin:miter;stroke:rgb(0%,0%,0%);stroke-opacity:1;stroke-miterlimit:4;" d="M 90.328125 265.375 L 103.796875 265.375 L 103.796875 270.296875 L 90.328125 270.296875 Z M 90.328125 265.375 " transform="matrix(0.25,0,0,0.25,0,-2.5)"/>
<path style="fill-rule:evenodd;fill:rgb(100%,100%,100%);fill-opacity:1;stroke-width:1;stroke-linecap:butt;stroke-linejoin:miter;stroke:rgb(0%,0%,0%);stroke-opacity:1;stroke-miterlimit:4;" d="M 90.328125 202.765625 L 103.796875 202.765625 L 103.796875 207.671875 L 90.328125 207.671875 Z M 90.328125 202.765625 " transform="matrix(0.25,0,0,0.25,0,-2.5)"/>
<path style="fill-rule:evenodd;fill:rgb(100%,100%,100%);fill-opacity:1;stroke-width:1;stroke-linecap:butt;stroke-linejoin:miter;stroke:rgb(0%,0%,0%);stroke-opacity:1;stroke-miterlimit:4;" d="M 90.328125 190.21875 L 103.796875 190.21875 L 103.796875 195.140625 L 90.328125 195.140625 Z M 90.328125 190.21875 " transform="matrix(0.25,0,0,0.25,0,-2.5)"/>
<path style="fill-rule:evenodd;fill:rgb(100%,100%,100%);fill-opacity:1;stroke-width:1;stroke-linecap:butt;stroke-linejoin:miter;stroke:rgb(0%,0%,0%);stroke-opacity:1;stroke-miterlimit:4;" d="M 100.328125 234.046875 L 113.78125 234.046875 L 113.78125 238.953125 L 100.328125 238.953125 Z M 100.328125 234.046875 " transform="matrix(0.25,0,0,0.25,0,-2.5)"/>
<path style="fill-rule:evenodd;fill:rgb(100%,100%,100%);fill-opacity:1;stroke-width:1;stroke-linecap:butt;stroke-linejoin:miter;stroke:rgb(0%,0%,0%);stroke-opacity:1;stroke-miterlimit:4;" d="M 100.328125 221.5 L 113.78125 221.5 L 113.78125 226.421875 L 100.328125 226.421875 Z M 100.328125 221.5 " transform="matrix(0.25,0,0,0.25,0,-2.5)"/>
<path style="fill-rule:evenodd;fill:rgb(100%,100%,100%);fill-opacity:1;stroke-width:1;stroke-linecap:butt;stroke-linejoin:miter;stroke:rgb(0%,0%,0%);stroke-opacity:1;stroke-miterlimit:4;" d="M 100.328125 246.5625 L 113.78125 246.5625 L 113.78125 251.484375 L 100.328125 251.484375 Z M 100.328125 246.5625 " transform="matrix(0.25,0,0,0.25,0,-2.5)"/>
<path style="fill-rule:evenodd;fill:rgb(100%,100%,100%);fill-opacity:1;stroke-width:1;stroke-linecap:butt;stroke-linejoin:miter;stroke:rgb(0%,0%,0%);stroke-opacity:1;stroke-miterlimit:4;" d="M 100.328125 259.046875 L 113.78125 259.046875 L 113.78125 263.96875 L 100.328125 263.96875 Z M 100.328125 259.046875 " transform="matrix(0.25,0,0,0.25,0,-2.5)"/>
<path style="fill-rule:evenodd;fill:rgb(100%,100%,100%);fill-opacity:1;stroke-width:1;stroke-linecap:butt;stroke-linejoin:miter;stroke:rgb(0%,0%,0%);stroke-opacity:1;stroke-miterlimit:4;" d="M 100.328125 271.5625 L 113.78125 271.5625 L 113.78125 276.484375 L 100.328125 276.484375 Z M 100.328125 271.5625 " transform="matrix(0.25,0,0,0.25,0,-2.5)"/>
<path style="fill-rule:evenodd;fill:rgb(100%,100%,100%);fill-opacity:1;stroke-width:1;stroke-linecap:butt;stroke-linejoin:miter;stroke:rgb(0%,0%,0%);stroke-opacity:1;stroke-miterlimit:4;" d="M 100.328125 208.953125 L 113.78125 208.953125 L 113.78125 213.875 L 100.328125 213.875 Z M 100.328125 208.953125 " transform="matrix(0.25,0,0,0.25,0,-2.5)"/>
<path style="fill-rule:evenodd;fill:rgb(100%,100%,100%);fill-opacity:1;stroke-width:1;stroke-linecap:butt;stroke-linejoin:miter;stroke:rgb(0%,0%,0%);stroke-opacity:1;stroke-miterlimit:4;" d="M 100.328125 196.40625 L 113.78125 196.40625 L 113.78125 201.3125 L 100.328125 201.3125 Z M 100.328125 196.40625 " transform="matrix(0.25,0,0,0.25,0,-2.5)"/>
<path style="fill-rule:evenodd;fill:rgb(100%,100%,100%);fill-opacity:1;stroke-width:1;stroke-linecap:butt;stroke-linejoin:miter;stroke:rgb(0%,0%,0%);stroke-opacity:1;stroke-miterlimit:4;" d="M 100.328125 183.890625 L 113.78125 183.890625 L 113.78125 188.8125 L 100.328125 188.8125 Z M 100.328125 183.890625 " transform="matrix(0.25,0,0,0.25,0,-2.5)"/>
<path style="fill-rule:evenodd;fill:rgb(100%,100%,100%);fill-opacity:1;stroke-width:1;stroke-linecap:butt;stroke-linejoin:miter;stroke:rgb(0%,0%,0%);stroke-opacity:1;stroke-miterlimit:4;" d="M 100.335846 234.045187 L 113.79588 234.044093 L 113.792796 238.952855 L 100.332763 238.953949 Z M 100.335846 234.045187 " transform="matrix(0.24116,0.0658975,-0.0658975,0.24116,20.06975,-48.7925)"/>
<path style="fill-rule:evenodd;fill:rgb(100%,100%,100%);fill-opacity:1;stroke-width:1;stroke-linecap:butt;stroke-linejoin:miter;stroke:rgb(0%,0%,0%);stroke-opacity:1;stroke-miterlimit:4;" d="M 100.324234 221.495102 L 113.784267 221.494008 L 113.785302 226.417842 L 100.325269 226.418936 Z M 100.324234 221.495102 " transform="matrix(0.24116,0.0658975,-0.0658975,0.24116,20.06975,-48.7925)"/>
<path style="fill-rule:evenodd;fill:rgb(100%,100%,100%);fill-opacity:1;stroke-width:1;stroke-linecap:butt;stroke-linejoin:miter;stroke:rgb(0%,0%,0%);stroke-opacity:1;stroke-miterlimit:4;" d="M 100.339222 246.565127 L 113.784183 246.568152 L 113.781099 251.476914 L 100.336138 251.473889 Z M 100.339222 246.565127 " transform="matrix(0.24116,0.0658975,-0.0658975,0.24116,20.06975,-48.7925)"/>
<path style="fill-rule:evenodd;fill:rgb(100%,100%,100%);fill-opacity:1;stroke-width:1;stroke-linecap:butt;stroke-linejoin:miter;stroke:rgb(0%,0%,0%);stroke-opacity:1;stroke-miterlimit:4;" d="M 100.33436 259.054923 L 113.794394 259.053829 L 113.79131 263.962591 L 100.331277 263.963685 Z M 100.33436 259.054923 " transform="matrix(0.24116,0.0658975,-0.0658975,0.24116,20.06975,-48.7925)"/>
<path style="fill-rule:evenodd;fill:rgb(100%,100%,100%);fill-opacity:1;stroke-width:1;stroke-linecap:butt;stroke-linejoin:miter;stroke:rgb(0%,0%,0%);stroke-opacity:1;stroke-miterlimit:4;" d="M 100.333617 271.559791 L 113.79365 271.558697 L 113.794685 276.482531 L 100.334652 276.483625 Z M 100.333617 271.559791 " transform="matrix(0.24116,0.0658975,-0.0658975,0.24116,20.06975,-48.7925)"/>
<path style="fill-rule:evenodd;fill:rgb(100%,100%,100%);fill-opacity:1;stroke-width:1;stroke-linecap:butt;stroke-linejoin:miter;stroke:rgb(0%,0%,0%);stroke-opacity:1;stroke-miterlimit:4;" d="M 100.331812 208.955971 L 113.791846 208.954877 L 113.788762 213.863638 L 100.328729 213.864732 Z M 100.331812 208.955971 " transform="matrix(0.24116,0.0658975,-0.0658975,0.24116,20.06975,-48.7925)"/>
<path style="fill-rule:evenodd;fill:rgb(100%,100%,100%);fill-opacity:1;stroke-width:1;stroke-linecap:butt;stroke-linejoin:miter;stroke:rgb(0%,0%,0%);stroke-opacity:1;stroke-miterlimit:4;" d="M 100.335272 196.401767 L 113.795305 196.400673 L 113.792222 201.309435 L 100.332188 201.310529 Z M 100.335272 196.401767 " transform="matrix(0.24116,0.0658975,-0.0658975,0.24116,20.06975,-48.7925)"/>
<path style="fill-rule:evenodd;fill:rgb(100%,100%,100%);fill-opacity:1;stroke-width:1;stroke-linecap:butt;stroke-linejoin:miter;stroke:rgb(0%,0%,0%);stroke-opacity:1;stroke-miterlimit:4;" d="M 100.331897 183.881827 L 113.796049 183.895805 L 113.792965 188.804567 L 100.332932 188.805661 Z M 100.331897 183.881827 " transform="matrix(0.24116,0.0658975,-0.0658975,0.24116,20.06975,-48.7925)"/>
<path style="fill-rule:evenodd;fill:rgb(100%,100%,100%);fill-opacity:1;stroke-width:1;stroke-linecap:butt;stroke-linejoin:miter;stroke:rgb(0%,0%,0%);stroke-opacity:1;stroke-miterlimit:4;" d="M 90.33632 227.858549 L 103.79619 227.868616 L 103.788273 232.778215 L 90.325544 232.78351 Z M 90.33632 227.858549 " transform="matrix(0.245778,-0.0457475,0.0457475,0.245778,-14.47425,-38.5925)"/>
<path style="fill-rule:evenodd;fill:rgb(100%,100%,100%);fill-opacity:1;stroke-width:1;stroke-linecap:butt;stroke-linejoin:miter;stroke:rgb(0%,0%,0%);stroke-opacity:1;stroke-miterlimit:4;" d="M 90.334162 215.318223 L 103.794032 215.32829 L 103.786116 220.237889 L 90.338748 220.246043 Z M 90.334162 215.318223 " transform="matrix(0.245778,-0.0457475,0.0457475,0.245778,-14.47425,-38.5925)"/>
<path style="fill-rule:evenodd;fill:rgb(100%,100%,100%);fill-opacity:1;stroke-width:1;stroke-linecap:butt;stroke-linejoin:miter;stroke:rgb(0%,0%,0%);stroke-opacity:1;stroke-miterlimit:4;" d="M 90.328834 240.365293 L 103.788704 240.37536 L 103.796149 245.287819 L 90.33342 245.293113 Z M 90.328834 240.365293 " transform="matrix(0.245778,-0.0457475,0.0457475,0.245778,-14.47425,-38.5925)"/>
<path style="fill-rule:evenodd;fill:rgb(100%,100%,100%);fill-opacity:1;stroke-width:1;stroke-linecap:butt;stroke-linejoin:miter;stroke:rgb(0%,0%,0%);stroke-opacity:1;stroke-miterlimit:4;" d="M 90.339569 252.859535 L 103.786937 252.851381 L 103.791523 257.779201 L 90.328793 257.784496 Z M 90.339569 252.859535 " transform="matrix(0.245778,-0.0457475,0.0457475,0.245778,-14.47425,-38.5925)"/>
<path style="fill-rule:evenodd;fill:rgb(100%,100%,100%);fill-opacity:1;stroke-width:1;stroke-linecap:butt;stroke-linejoin:miter;stroke:rgb(0%,0%,0%);stroke-opacity:1;stroke-miterlimit:4;" d="M 90.329224 265.381641 L 103.791954 265.376346 L 103.796539 270.304166 L 90.336669 270.294099 Z M 90.329224 265.381641 " transform="matrix(0.245778,-0.0457475,0.0457475,0.245778,-14.47425,-38.5925)"/>
<path style="fill-rule:evenodd;fill:rgb(100%,100%,100%);fill-opacity:1;stroke-width:1;stroke-linecap:butt;stroke-linejoin:miter;stroke:rgb(0%,0%,0%);stroke-opacity:1;stroke-miterlimit:4;" d="M 90.334864 202.762536 L 103.797594 202.757241 L 103.786818 207.682202 L 90.326948 207.672136 Z M 90.334864 202.762536 " transform="matrix(0.245778,-0.0457475,0.0457475,0.245778,-14.47425,-38.5925)"/>
<path style="fill-rule:evenodd;fill:rgb(100%,100%,100%);fill-opacity:1;stroke-width:1;stroke-linecap:butt;stroke-linejoin:miter;stroke:rgb(0%,0%,0%);stroke-opacity:1;stroke-miterlimit:4;" d="M 90.332707 190.22221 L 103.795437 190.216916 L 103.784661 195.141876 L 90.340152 195.134669 Z M 90.332707 190.22221 " transform="matrix(0.245778,-0.0457475,0.0457475,0.245778,-14.47425,-38.5925)"/>
<path style="fill-rule:evenodd;fill:rgb(100%,100%,100%);fill-opacity:1;stroke-width:1;stroke-linecap:butt;stroke-linejoin:miter;stroke:rgb(0%,0%,0%);stroke-opacity:1;stroke-miterlimit:4;" d="M 124.75405 111.010875 C 124.738425 119.729625 114.4728 126.792125 101.832175 126.7765 C 89.175925 126.7765 78.94155 119.698375 78.94155 110.99525 C 78.94155 102.2765 89.175925 95.214 101.832175 95.198375 C 114.4728 95.198375 124.738425 102.260875 124.75405 110.964 " transform="matrix(0.25,0,0,0.25,-0.258825,-2.694125)"/>
<path style="fill-rule:evenodd;fill:rgb(100%,100%,100%);fill-opacity:1;stroke-width:1;stroke-linecap:butt;stroke-linejoin:miter;stroke:rgb(0%,0%,0%);stroke-opacity:1;stroke-miterlimit:4;" d="M 90.9375 120.1875 L 109.921875 120.1875 C 112.6875 120.1875 114.921875 122.421875 114.921875 125.1875 L 114.921875 137.703125 C 114.921875 140.453125 112.6875 142.703125 109.921875 142.703125 L 90.9375 142.703125 C 88.171875 142.703125 85.9375 140.453125 85.9375 137.703125 L 85.9375 125.1875 C 85.9375 122.421875 88.171875 120.1875 90.9375 120.1875 Z M 90.9375 120.1875 " transform="matrix(0.25,0,0,0.25,0,-2.5)"/>
<path style="fill-rule:evenodd;fill:rgb(100%,100%,100%);fill-opacity:1;stroke-width:1;stroke-linecap:butt;stroke-linejoin:miter;stroke:rgb(0%,0%,0%);stroke-opacity:1;stroke-miterlimit:4;" d="M 87.71875 118.21875 C 84.953125 118.21875 82.71875 120.453125 82.71875 123.21875 L 82.71875 197.4375 C 82.71875 200.203125 84.953125 202.4375 87.71875 202.4375 L 113.21875 202.4375 C 115.984375 202.4375 118.21875 200.203125 118.21875 197.4375 L 118.21875 123.21875 C 118.21875 120.453125 115.984375 118.21875 113.21875 118.21875 Z M 93.703125 121.15625 L 107.15625 121.15625 C 109.921875 121.15625 112.15625 123.390625 112.15625 126.15625 L 112.15625 149.46875 C 112.15625 152.234375 109.921875 154.46875 107.15625 154.46875 L 93.703125 154.46875 C 90.9375 154.46875 88.703125 152.234375 88.703125 149.46875 L 88.703125 126.15625 C 88.703125 123.390625 90.9375 121.15625 93.703125 121.15625 Z M 93.25 184.40625 C 93.421875 184.390625 93.578125 184.40625 93.75 184.40625 L 107.1875 184.40625 C 109.953125 184.40625 112.1875 186.640625 112.1875 189.40625 L 112.1875 191.46875 C 112.1875 194.234375 109.953125 196.46875 107.1875 196.46875 L 93.75 196.46875 C 90.984375 196.46875 88.75 194.234375 88.75 191.46875 L 88.75 189.40625 C 88.75 186.8125 90.734375 184.65625 93.25 184.40625 Z M 93.25 184.40625 " transform="matrix(0.25,0,0,0.25,0,-2.5)"/>
<path style="fill-rule:evenodd;fill:rgb(100%,100%,100%);fill-opacity:1;stroke-width:1;stroke-linecap:butt;stroke-linejoin:miter;stroke:rgb(0%,0%,0%);stroke-opacity:1;stroke-miterlimit:4;" d="M 96.578125 90.421875 L 104.1875 90.421875 C 106.9375 90.421875 109.1875 92.65625 109.1875 95.421875 L 109.1875 141.0625 C 109.1875 143.828125 106.9375 146.0625 104.1875 146.0625 L 96.578125 146.0625 C 93.828125 146.0625 91.578125 143.828125 91.578125 141.0625 L 91.578125 95.421875 C 91.578125 92.65625 93.828125 90.421875 96.578125 90.421875 Z M 96.578125 90.421875 " transform="matrix(0.25,0,0,0.25,0,-2.5)"/>
<path style="fill:none;stroke-width:1;stroke-linecap:butt;stroke-linejoin:miter;stroke:rgb(0%,0%,0%);stroke-opacity:1;stroke-miterlimit:4;" d="M 87.46875 179.296875 L 113.359375 179.296875 " transform="matrix(0.25,0,0,0.25,0,-2.5)"/>
<path style="fill:none;stroke-width:1;stroke-linecap:butt;stroke-linejoin:miter;stroke:rgb(0%,0%,0%);stroke-opacity:1;stroke-miterlimit:4;" d="M 87.46875 162 L 113.359375 162 " transform="matrix(0.25,0,0,0.25,0,-2.5)"/>
</g>
</svg>
